<svg version="1.1" viewBox="0.0 0.0 430.0209973753281 100.0" fill="none" stroke="none" stroke-linecap="square" stroke-miterlimit="10" xmlns:xlink="http://www.w3.org/1999/xlink" xmlns="http://www.w3.org/2000/svg"><clipPath id="p.0"><path d="m0 0l430.021 0l0 100.0l-430.021 0l0 -100.0z" clip-rule="nonzero"/></clipPath><g clip-path="url(#p.0)"><path fill="#000000" fill-opacity="0.0" d="m0 0l430.021 0l0 100.0l-430.021 0z" fill-rule="evenodd"/><path fill="#000000" fill-opacity="0.0" d="m128.01312 2.2493439l311.0551 0l0 80.44095l-311.0551 0z" fill-rule="evenodd"/><path fill="#ffffff" d="m167.29437 23.436218l0 4.046875l-10.890625 0l0 32.40625l-5.984375 0l0 -32.40625l-10.890625 0l0 -4.046875l27.765625 0zm12.610443 23.734375q0 1.734375 0.140625 3.25q0.15625 1.5 0.640625 2.640625q0.5 1.140625 1.484375 1.84375q1.0 0.6875 2.625 0.6875q0.640625 0 1.828125 -0.203125q1.1875 -0.203125 2.28125 -0.640625l0 3.65625q-1.28125 0.6875 -2.796875 1.21875q-1.5 0.515625 -2.984375 0.515625q-1.1875 0 -2.140625 -0.234375q-0.9375 -0.21875 -1.75 -0.6875q-0.8125 -0.46875 -1.5625 -1.0625q-0.734375 -0.59375 -1.484375 -1.328125q-0.828125 -0.84375 -1.328125 -1.953125q-0.5 -1.125 -0.71875 -2.328125q-0.21875 -1.21875 -0.25 -2.453125q-0.015625 -1.234375 -0.015625 -2.421875l0 -15.6875l6.03125 0l0 15.1875zm17.0625 -15.1875l0 27.90625l-5.390625 0l-0.640625 -2.875l0 -25.03125l6.03125 0zm13.798248 0l0.65625 2.828125l0 36.0625l-6.046875 0l0 -38.890625l5.390625 0zm19.0 8.46875q0.59375 2.265625 0.59375 5.09375q0 2.8125 -0.671875 5.46875q-0.65625 2.640625 -2.015625 4.671875q-1.359375 2.03125 -3.421875 3.25q-2.046875 1.203125 -4.828125 1.203125q-1.71875 0 -3.28125 -0.390625q-1.5625 -0.40625 -2.703125 -1.046875l0 -5.140625q1.640625 1.921875 4.015625 1.921875q1.484375 0 2.6875 -0.734375q1.21875 -0.75 2.078125 -2.0q0.875 -1.265625 1.359375 -3.015625q0.5 -1.765625 0.5 -3.75q0 -1.921875 -0.453125 -3.65625q-0.4375 -1.734375 -1.25 -3.0625q-0.8125 -1.34375 -1.984375 -2.125q-1.15625 -0.796875 -2.6875 -0.796875q-1.296875 0 -2.359375 0.515625q-1.0625 0.515625 -1.90625 1.46875l0 -5.25q1.140625 -0.640625 2.515625 -0.984375q1.390625 -0.34375 2.875 -0.34375q1.640625 0 3.3125 0.453125q1.6875 0.4375 3.140625 1.46875q1.46875 1.03125 2.65625 2.71875q1.1875 1.6875 1.828125 4.0625zm13.207031 10.921875q0 1.6875 0.4375 2.65625q0.453125 0.96875 1.25 1.4375q0.796875 0.46875 1.796875 0.625q1.015625 0.140625 2.203125 0.140625l0 3.65625q-0.640625 0.09375 -1.328125 0.140625q-0.546875 0.0625 -1.296875 0.078125q-0.734375 0.03125 -1.46875 0.03125q-0.75 0 -1.5 -0.0625q-0.734375 -0.046875 -1.328125 -0.140625q-1.6875 -0.34375 -2.625 -1.484375q-0.9375 -1.140625 -1.4375 -2.546875q-0.484375 -1.40625 -0.609375 -2.734375q-0.125 -1.34375 -0.125 -2.09375l0 -0.59375l0 -29.03125l6.03125 0l0 29.921875zm24.988495 -19.625q2.671875 0.234375 4.8125 1.421875q2.15625 1.1875 3.6875 3.078125q1.53125 1.875 2.34375 4.296875q0.828125 2.421875 0.828125 5.046875q0 1.1875 -0.15625 2.375l-16.953125 0l0 -4.359375l11.421875 0q0 -1.28125 -0.421875 -2.46875q-0.421875 -1.1875 -1.234375 -2.203125q-0.8125 -1.015625 -1.90625 -1.703125q-1.09375 -0.6875 -2.421875 -0.84375l0 -4.640625zm-0.203125 23.484375q0.546875 0 1.359375 -0.109375q0.8125 -0.125 1.734375 -0.453125q0.921875 -0.328125 1.828125 -0.8125q0.921875 -0.5 1.609375 -1.1875l2.171875 3.3125q-1.625 2.03125 -3.8125 3.078125q-2.171875 1.03125 -5.53125 1.03125q-2.71875 0 -5.09375 -1.109375q-2.375 -1.125 -4.0625 -3.046875q-1.671875 -1.9375 -2.671875 -4.5q-0.984375 -2.578125 -0.984375 -5.546875q0 -2.8125 0.90625 -5.328125q0.921875 -2.53125 2.5 -4.4375q1.59375 -1.90625 3.6875 -3.09375q2.109375 -1.1875 4.53125 -1.34375l0 4.75q-1.828125 0.34375 -3.015625 1.484375q-1.1875 1.140625 -1.859375 2.609375q-0.671875 1.453125 -0.9375 2.984375q-0.265625 1.53125 -0.265625 2.625q0 1.921875 0.46875 3.578125q0.46875 1.65625 1.453125 2.875q0.984375 1.21875 2.4375 1.9375q1.46875 0.703125 3.546875 0.703125zm59.66754 -31.796875l0 4.046875l-10.890625 0l0 32.40625l-5.984375 0l0 -32.40625l-10.890625 0l0 -4.046875l27.765625 0zm19.735443 8.3125q2.671875 0.234375 4.8125 1.421875q2.15625 1.1875 3.6875 3.078125q1.53125 1.875 2.34375 4.296875q0.828125 2.421875 0.828125 5.046875q0 1.1875 -0.15625 2.375l-16.953125 0l0 -4.359375l11.421875 0q0 -1.28125 -0.421875 -2.46875q-0.421875 -1.1875 -1.234375 -2.203125q-0.8125 -1.015625 -1.90625 -1.703125q-1.09375 -0.6875 -2.421875 -0.84375l0 -4.640625zm-0.203125 23.484375q0.546875 0 1.359375 -0.109375q0.8125 -0.125 1.734375 -0.453125q0.921875 -0.328125 1.828125 -0.8125q0.921875 -0.5 1.609375 -1.1875l2.171875 3.3125q-1.625 2.03125 -3.8125 3.078125q-2.171875 1.03125 -5.53125 1.03125q-2.71875 0 -5.09375 -1.109375q-2.375 -1.125 -4.0625 -3.046875q-1.671875 -1.9375 -2.671875 -4.5q-0.984375 -2.578125 -0.984375 -5.546875q0 -2.8125 0.90625 -5.328125q0.921875 -2.53125 2.5 -4.4375q1.59375 -1.90625 3.6875 -3.09375q2.109375 -1.1875 4.53125 -1.34375l0 4.75q-1.828125 0.34375 -3.015625 1.484375q-1.1875 1.140625 -1.859375 2.609375q-0.671875 1.453125 -0.9375 2.984375q-0.265625 1.53125 -0.265625 2.625q0 1.921875 0.46875 3.578125q0.46875 1.65625 1.453125 2.875q0.984375 1.21875 2.4375 1.9375q1.46875 0.703125 3.546875 0.703125zm38.644287 -16.015625q-0.75 -0.890625 -2.0625 -1.65625q-1.3125 -0.78125 -3.484375 -0.921875l0 -4.75q2.71875 0.15625 4.671875 1.171875q1.953125 1.0 3.53125 2.9375l-2.65625 3.21875zm-5.546875 15.96875q1.78125 -0.1875 3.03125 -0.859375q1.265625 -0.671875 2.40625 -1.5625l2.234375 3.21875q-1.53125 1.921875 -3.3125 2.9375q-1.78125 1.015625 -4.359375 1.171875l0 -4.90625zm-13.796875 -9.25q0 -2.8125 0.8125 -5.28125q0.8125 -2.484375 2.390625 -4.359375q1.59375 -1.875 3.734375 -3.03125q2.15625 -1.171875 4.828125 -1.375l0 4.796875q-2.46875 0.546875 -3.953125 3.046875q-1.484375 2.5 -1.484375 6.0625q0 1.828125 0.359375 3.4375q0.375 1.609375 1.0625 2.84375q0.703125 1.234375 1.71875 2.078125q1.015625 0.84375 2.296875 1.03125l0 4.90625q-2.71875 -0.15625 -4.90625 -1.3125q-2.171875 -1.171875 -3.703125 -3.0625q-1.53125 -1.90625 -2.34375 -4.421875q-0.8125 -2.53125 -0.8125 -5.359375zm29.720612 -24.484375l5.984375 0l0 38.4375l-5.984375 0l0 -38.4375zm20.78125 13.609375q0.84375 0.828125 1.3125 1.953125q0.46875 1.109375 0.6875 2.328125q0.21875 1.203125 0.265625 2.4375q0.0625 1.234375 0.0625 2.421875l0 14.703125l0 0.984375l-6.03125 0l0 -15.1875q0 -1.6875 -0.15625 -3.21875q-0.140625 -1.53125 -0.6875 -2.71875q-0.546875 -1.1875 -1.484375 -1.84375q-0.9375 -0.671875 -2.625 -0.671875q-0.6875 0 -1.859375 0.21875q-1.15625 0.21875 -2.25 0.71875l0 -3.8125q1.34375 -0.6875 2.890625 -1.1875q1.5625 -0.5 3.046875 -0.5q2.234375 0 3.765625 0.921875q1.53125 0.921875 3.0625 2.453125z" fill-rule="nonzero"/><path fill="#ffffff" d="m59.7493 53.966877l21.149605 0l0 -21.149609l23.6063 0l0 -21.149605l-44.755905 0z" fill-rule="evenodd"/><path stroke="#ffffff" stroke-width="1.0" stroke-linejoin="round" stroke-linecap="butt" d="m59.7493 53.966877l21.149605 0l0 -21.149609l23.6063 0l0 -21.149605l-44.755905 0z" fill-rule="evenodd"/><path fill="#ffffff" d="m104.50394 36.41729l-20.267715 0l0 20.47931l-24.48819 0l0 20.056122l44.755905 0z" fill-rule="evenodd"/><path stroke="#ffffff" stroke-width="1.0" stroke-linejoin="round" stroke-linecap="butt" d="m104.50394 36.41729l-20.267715 0l0 20.47931l-24.48819 0l0 20.056122l44.755905 0z" fill-rule="evenodd"/><path fill="#ffffff" d="m56.356956 53.966877l-21.149609 0l0 -21.149609l-23.606298 0l0 -21.149605l44.755905 0z" fill-rule="evenodd"/><path stroke="#ffffff" stroke-width="1.0" stroke-linejoin="round" stroke-linecap="butt" d="m56.356956 53.966877l-21.149609 0l0 -21.149609l-23.606298 0l0 -21.149605l44.755905 0z" fill-rule="evenodd"/><path fill="#ffffff" d="m11.602316 36.41729l20.267717 0l0 20.47931l24.48819 0l0 20.056122l-44.755905 0z" fill-rule="evenodd"/><path stroke="#ffffff" stroke-width="1.0" stroke-linejoin="round" stroke-linecap="butt" d="m11.602316 36.41729l20.267717 0l0 20.47931l24.48819 0l0 20.056122l-44.755905 0z" fill-rule="evenodd"/></g></svg>
